# xmcd CD database file
#
# Track frame offsets:
#	150
#	27070
#	43057
#	51262
#	60415
#	67162
#	76277
#	86020
#	109502
#	123715
#	140362
#	146972
#	159137
#	167932
#	186577
#	192742
#	204932
#	215482
#	246087
#
# Disc length: 3537 seconds
#
# Revision: 0
# Processed by: cddbd v1.5.2PL0 Copyright (c) Steve Scherf et al.
# Submitted via: CDex 1.51
#
DISCID=1e0dcf13
DTITLE=Willie Nelson - Willie And Family Live [CD2]
DYEAR=1997
DGENRE=Country
TTITLE0=Till I Gain Control Again
TTITLE1=Bloody Mary Morning
TTITLE2=I'm A Memory
TTITLE3=Mr. Record Man
TTITLE4=Hello Walls
TTITLE5=One Day At A Time
TTITLE6=Will The Circle Be Unbroken
TTITLE7=Amazing Grace
TTITLE8=Take This Job And Shove It
TTITLE9=Uncloudy Day
TTITLE10=The Only Daddy That'll Walk The Line
TTITLE11=A Song For You
TTITLE12=Roll In My Sweet Baby's Arms
TTITLE13=Georgia On My Mind
TTITLE14=I Gotta Get Drunk
TTITLE15=Whiskey River
TTITLE16=The Only Daddy That'll Walk The Line
TTITLE17=Till I Gain Control Again
TTITLE18=Georgia On My Mind
EXTD=YEAR: 1997
EXTT0=
EXTT1=
EXTT2=
EXTT3=
EXTT4=
EXTT5=
EXTT6=
EXTT7=
EXTT8=
EXTT9=
EXTT10=
EXTT11=
EXTT12=
EXTT13=
EXTT14=
EXTT15=
EXTT16=
EXTT17=
EXTT18=
PLAYORDER=
